<?xml version="1.0" standalone="no"?>
<!DOCTYPE svg PUBLIC "-//W3C//DTD SVG 20010904//EN"
 "http://www.w3.org/TR/2001/REC-SVG-20010904/DTD/svg10.dtd">
<svg version="1.0" xmlns="http://www.w3.org/2000/svg"
 width="336.000000pt" height="336.000000pt" viewBox="0 0 336.000000 336.000000"
 preserveAspectRatio="xMidYMid meet">

<g transform="translate(0.000000,336.000000) scale(0.100000,-0.100000)"
fill="#ba3966" stroke="none">
<path d="M1575 2821 c-134 -39 -244 -123 -373 -283 -288 -359 -495 -877 -533
-1333 -20 -239 8 -355 119 -494 67 -83 166 -142 287 -171 72 -18 118 -20 447
-20 405 0 460 6 577 60 151 71 290 275 291 428 0 28 5 35 33 47 75 31 165 113
214 195 234 389 -144 1265 -657 1525 -123 63 -285 81 -405 46z m259 -232 c259
-96 543 -487 626 -859 27 -120 27 -252 0 -322 -20 -52 -83 -128 -107 -128 -17
0 -23 17 -168 413 -68 185 -133 353 -145 372 -54 87 -166 145 -280 145 -159 0
-262 -79 -339 -261 -24 -57 -52 -122 -62 -144 -10 -22 -55 -125 -101 -230
l-83 -190 0 -91 c0 -83 2 -95 30 -139 17 -27 53 -68 82 -91 83 -68 129 -74
527 -74 262 0 336 -3 336 -12 -1 -24 -38 -95 -68 -129 -17 -19 -57 -48 -89
-65 l-58 -29 -410 0 -410 0 -51 27 c-69 37 -140 117 -159 181 -47 157 13 513
141 837 161 409 409 744 594 804 39 12 143 5 194 -15z m-15 -624 c16 -8 33
-27 39 -42 5 -15 56 -154 112 -308 106 -290 130 -361 130 -383 0 -10 -64 -12
-329 -10 -306 3 -330 4 -350 22 -42 38 -45 29 109 381 116 267 145 328 163
340 27 19 90 19 126 0z"/>
</g>
</svg>
